<svg width="24" height="24" viewBox="0 0 24 24" fill="none" xmlns="http://www.w3.org/2000/svg">
<path d="M22.6666 1.33333L17.3333 6.66666L14.6666 9.33333M1.33331 22.6667V17.3333V22.6667ZM1.33331 22.6667H6.66665H1.33331ZM1.33331 22.6667L6.66665 17.3333L9.33331 14.6667L1.33331 22.6667ZM22.6666 1.33333H17.3333H22.6666ZM22.6666 1.33333V6.66666V1.33333Z" stroke="white" stroke-width="2" stroke-linecap="round" stroke-linejoin="round"/>
<path d="M22.6666 22.6667L17.3333 17.3333L14.6666 14.6667M1.33331 1.33333V6.66666V1.33333ZM1.33331 1.33333H6.66665H1.33331ZM1.33331 1.33333L6.66665 6.66666L9.33331 9.33333L1.33331 1.33333ZM22.6666 22.6667H17.3333H22.6666ZM22.6666 22.6667V17.3333V22.6667Z" stroke="white" stroke-width="2" stroke-linecap="round" stroke-linejoin="round"/>
</svg>
