<svg width="318" height="173" viewBox="0 0 318 173" fill="none" xmlns="http://www.w3.org/2000/svg">
<path fill-rule="evenodd" clip-rule="evenodd" d="M81.2865 0H88.4326V76.411L142.647 22.2875L147.7 27.3319L93.7921 81.1497H169.719V88.2837H93.1794L147.394 142.407L142.341 147.451L88.4326 93.634V169.433H81.2865V93.634L27.691 147.139L22.6379 142.095L76.5398 88.2837H0V81.1497H75.9274L22.3315 27.6441L27.3845 22.5996L81.2865 76.4107V0ZM247.686 160.203C248.55 158.212 248.982 156.086 248.982 153.827C248.982 150.855 248.267 148.15 246.838 145.712C245.408 143.245 243.443 141.313 240.942 139.916C238.441 138.489 235.687 137.776 232.68 137.776C229.673 137.776 226.918 138.489 224.417 139.916C221.916 141.313 219.951 143.245 218.521 145.712C217.092 148.15 216.378 150.855 216.378 153.827C216.378 156.8 217.092 159.519 218.521 161.987C219.951 164.424 221.916 166.356 224.417 167.783C226.918 169.181 229.673 169.879 232.68 169.879C235.598 169.879 238.278 169.21 240.719 167.872L244.694 172.287L247.82 169.433L244.158 165.376C245.676 163.889 246.853 162.165 247.686 160.203ZM237.682 164.528C236.074 165.242 234.407 165.598 232.68 165.598C230.536 165.598 228.571 165.079 226.784 164.038C225.028 162.997 223.628 161.586 222.586 159.802C221.574 157.989 221.067 155.997 221.067 153.827C221.067 151.658 221.574 149.681 222.586 147.897C223.628 146.084 225.028 144.657 226.784 143.617C228.571 142.576 230.536 142.056 232.68 142.056C234.823 142.056 236.774 142.576 238.53 143.617C240.317 144.657 241.717 146.084 242.729 147.897C243.771 149.681 244.292 151.658 244.292 153.827C244.292 155.403 244.01 156.904 243.443 158.331C242.907 159.728 242.134 160.961 241.121 162.031L235.449 155.745L232.322 158.598L237.682 164.528ZM273.793 162.923V138.222H278.259V169.433H273.346L255.034 144.063V169.433H250.568V138.222H256.061L273.793 162.923ZM282.38 145.712C280.981 148.15 280.28 150.855 280.28 153.827C280.28 156.8 280.981 159.519 282.38 161.987C283.809 164.424 285.744 166.356 288.186 167.783C290.628 169.181 293.337 169.879 296.314 169.879C298.607 169.879 300.751 169.448 302.746 168.586C304.741 167.694 306.453 166.446 307.882 164.84C309.342 163.206 310.414 161.318 311.098 159.178H306.14C305.217 161.169 303.907 162.745 302.21 163.904C300.543 165.034 298.578 165.598 296.314 165.598C294.201 165.598 292.28 165.079 290.553 164.038C288.826 162.997 287.457 161.586 286.444 159.802C285.461 157.989 284.97 155.997 284.97 153.827C284.97 151.658 285.461 149.681 286.444 147.897C287.457 146.084 288.826 144.657 290.553 143.617C292.28 142.576 294.201 142.056 296.314 142.056C298.578 142.056 300.543 142.636 302.21 143.795C303.907 144.925 305.217 146.486 306.14 148.477H311.098C310.414 146.337 309.342 144.464 307.882 142.859C306.453 141.224 304.741 139.976 302.746 139.113C300.751 138.222 298.607 137.776 296.314 137.776C293.337 137.776 290.628 138.489 288.186 139.916C285.744 141.313 283.809 143.245 282.38 145.712ZM202.888 169.879C199.256 169.879 196.189 168.987 193.688 167.204C191.216 165.391 189.713 162.879 189.177 159.668H193.643C194.387 161.719 195.504 163.22 196.993 164.172C198.512 165.123 200.521 165.598 203.022 165.598C205.434 165.598 207.384 165.168 208.873 164.305C210.361 163.414 211.106 162.27 211.106 160.872C211.106 159.653 210.555 158.672 209.454 157.929C208.352 157.156 206.536 156.518 204.005 156.012L200.611 155.388C197.067 154.764 194.417 153.694 192.661 152.178C190.904 150.632 190.026 148.729 190.026 146.47C190.026 144.747 190.546 143.231 191.589 141.922C192.63 140.614 194.09 139.604 195.966 138.89C197.842 138.148 200 137.776 202.442 137.776C205.627 137.776 208.396 138.563 210.749 140.139C213.101 141.684 214.649 143.869 215.394 146.693H210.704C210.109 145.177 209.037 144.033 207.489 143.26C205.97 142.457 204.213 142.056 202.219 142.056C199.866 142.056 198.005 142.473 196.636 143.305C195.296 144.107 194.626 145.222 194.626 146.649C194.626 147.808 195.162 148.744 196.234 149.458C197.335 150.171 199.062 150.736 201.415 151.152L204.809 151.732C208.561 152.356 211.315 153.426 213.072 154.942C214.828 156.458 215.707 158.405 215.707 160.783C215.707 162.566 215.156 164.142 214.054 165.509C212.982 166.876 211.478 167.946 209.543 168.72C207.608 169.493 205.39 169.879 202.888 169.879ZM312.64 164.528V169.433H317.553V164.528H312.64Z" fill="url(#paint0_linear_734_96)"/>
<defs>
<linearGradient id="paint0_linear_734_96" x1="21.2584" y1="46.2315" x2="358.674" y2="103.323" gradientUnits="userSpaceOnUse">
<stop stop-color="white"/>
<stop offset="1" stop-color="white" stop-opacity="0"/>
</linearGradient>
</defs>
</svg>
