<svg width="1233" height="19" viewBox="0 0 1233 19" fill="none" xmlns="http://www.w3.org/2000/svg">
<path d="M0.386353 1.45452H2.48855L7.43175 13.5284H7.60225L12.5455 1.45452H14.6477V16H13V4.94884H12.858L8.31245 16H6.72155L2.17605 4.94884H2.03405V16H0.386353V1.45452ZM30.4521 8.72727C30.4521 10.2614 30.1751 11.5871 29.6211 12.7045C29.0671 13.822 28.3072 14.6837 27.3413 15.2898C26.3754 15.8958 25.2721 16.1989 24.0316 16.1989C22.7911 16.1989 21.6879 15.8958 20.7219 15.2898C19.756 14.6837 18.9961 13.822 18.4421 12.7045C17.8881 11.5871 17.6112 10.2614 17.6112 8.72727C17.6112 7.19317 17.8881 5.86739 18.4421 4.74997C18.9961 3.63256 19.756 2.77081 20.7219 2.16475C21.6879 1.55869 22.7911 1.25566 24.0316 1.25566C25.2721 1.25566 26.3754 1.55869 27.3413 2.16475C28.3072 2.77081 29.0671 3.63256 29.6211 4.74997C30.1751 5.86739 30.4521 7.19317 30.4521 8.72727ZM28.7475 8.72727C28.7475 7.46777 28.5368 6.40481 28.1154 5.53833C27.6987 4.67185 27.1329 4.01608 26.418 3.571C25.7077 3.12593 24.9123 2.90338 24.0316 2.90338C23.1509 2.90338 22.3531 3.12593 21.6381 3.571C20.9279 4.01608 20.3621 4.67185 19.9407 5.53833C19.524 6.40481 19.3157 7.46777 19.3157 8.72727C19.3157 9.98668 19.524 11.0497 19.9407 11.9162C20.3621 12.7827 20.9279 13.4384 21.6381 13.8835C22.3531 14.3286 23.1509 14.5511 24.0316 14.5511C24.9123 14.5511 25.7077 14.3286 26.418 13.8835C27.1329 13.4384 27.6987 12.7827 28.1154 11.9162C28.5368 11.0497 28.7475 9.98668 28.7475 8.72727ZM33.4137 16V1.45452H38.4989C39.5122 1.45452 40.3479 1.62971 41.006 1.98009C41.6642 2.32574 42.1542 2.79211 42.4762 3.37924C42.7981 3.96163 42.9592 4.60793 42.9592 5.31816C42.9592 5.94316 42.8479 6.45926 42.6254 6.86646C42.4076 7.27367 42.1187 7.59558 41.7589 7.83238C41.4038 8.06908 41.0178 8.24428 40.6012 8.35798V8.49998C41.0462 8.52838 41.4937 8.68468 41.9435 8.96868C42.3932 9.25278 42.7698 9.65998 43.0728 10.1903C43.3758 10.7206 43.5273 11.3693 43.5273 12.1364C43.5273 12.8655 43.3616 13.5213 43.0302 14.1037C42.6987 14.6861 42.1755 15.1477 41.4606 15.4886C40.7456 15.8295 39.8152 16 38.6694 16H33.4137ZM35.175 14.4375H38.6694C39.82 14.4375 40.6367 14.215 41.1197 13.7699C41.6074 13.3201 41.8512 12.7756 41.8512 12.1364C41.8512 11.6439 41.7257 11.1894 41.4748 10.7727C41.2238 10.3513 40.8664 10.0152 40.4023 9.76418C39.9383 9.50848 39.3891 9.38068 38.7546 9.38068H35.175V14.4375ZM35.175 7.84657H38.4421C38.9724 7.84657 39.4506 7.74237 39.8768 7.53407C40.3076 7.32577 40.6486 7.03218 40.8995 6.65339C41.1552 6.2746 41.283 5.82953 41.283 5.31816C41.283 4.67896 41.0605 4.13682 40.6154 3.69174C40.1703 3.24193 39.4648 3.01702 38.4989 3.01702H35.175V7.84657ZM48.1829 1.45452V16H46.4215V1.45452H48.1829ZM51.7145 16V1.45452H53.4759V14.4375H60.2372V16H51.7145ZM62.9645 16V1.45452H71.7429V3.01702H64.7259V7.93178H71.2884V9.49428H64.7259V14.4375H71.8565V16H62.9645ZM81.139 16H79.293L84.634 1.45452H86.452L91.793 16H89.946L85.599 3.75566H85.486L81.139 16ZM81.821 10.3182H89.264V11.8807H81.821V10.3182ZM94.058 16V1.45452H98.973C100.114 1.45452 101.047 1.66049 101.771 2.07242C102.5 2.47962 103.04 3.03123 103.391 3.72725C103.741 4.42327 103.916 5.19979 103.916 6.0568C103.916 6.91381 103.741 7.69268 103.391 8.39348C103.045 9.09418 102.51 9.65287 101.786 10.0696C101.061 10.4815 100.133 10.6875 99.001 10.6875H95.479V9.12498H98.945C99.726 9.12498 100.353 8.99008 100.827 8.72017C101.3 8.45027 101.643 8.08568 101.857 7.62638C102.074 7.16238 102.183 6.63917 102.183 6.0568C102.183 5.47441 102.074 4.95358 101.857 4.49429C101.643 4.03501 101.298 3.67517 100.82 3.41475C100.341 3.1496 99.707 3.01702 98.916 3.01702H95.82V16H94.058ZM106.754 16V1.45452H111.668C112.809 1.45452 113.742 1.66049 114.467 2.07242C115.196 2.47962 115.736 3.03123 116.086 3.72725C116.436 4.42327 116.612 5.19979 116.612 6.0568C116.612 6.91381 116.436 7.69268 116.086 8.39348C115.74 9.09418 115.205 9.65287 114.481 10.0696C113.756 10.4815 112.828 10.6875 111.697 10.6875H108.174V9.12498H111.64C112.421 9.12498 113.049 8.99008 113.522 8.72017C113.996 8.45027 114.339 8.08568 114.552 7.62638C114.77 7.16238 114.879 6.63917 114.879 6.0568C114.879 5.47441 114.77 4.95358 114.552 4.49429C114.339 4.03501 113.993 3.67517 113.515 3.41475C113.037 3.1496 112.402 3.01702 111.612 3.01702H108.515V16H106.754ZM126.068 10.9148C125.718 10.9148 125.417 10.7893 125.166 10.5384C124.915 10.2874 124.79 9.98668 124.79 9.63638C124.79 9.28598 124.915 8.98528 125.166 8.73438C125.417 8.48338 125.718 8.35798 126.068 8.35798C126.419 8.35798 126.719 8.48338 126.97 8.73438C127.221 8.98528 127.347 9.28598 127.347 9.63638C127.347 9.86838 127.287 10.0814 127.169 10.2756C127.055 10.4697 126.902 10.6259 126.707 10.7443C126.518 10.858 126.305 10.9148 126.068 10.9148ZM136.803 16H134.957L140.298 1.45452H142.116L147.457 16H145.61L141.263 3.75566H141.15L136.803 16ZM137.485 10.3182H144.928V11.8807H137.485V10.3182ZM149.722 16V1.45452H154.637C155.773 1.45452 156.706 1.64865 157.435 2.03691C158.165 2.42043 158.704 2.94836 159.055 3.62071C159.405 4.29306 159.58 5.05775 159.58 5.91475C159.58 6.77176 159.405 7.53168 159.055 8.19458C158.704 8.85748 158.167 9.37827 157.442 9.75708C156.718 10.1312 155.792 10.3182 154.665 10.3182H150.688V8.72727H154.609C155.385 8.72727 156.01 8.61358 156.484 8.38638C156.962 8.15908 157.308 7.83708 157.521 7.42048C157.738 6.99902 157.847 6.49714 157.847 5.91475C157.847 5.33237 157.738 4.82337 157.521 4.38776C157.303 3.95216 156.955 3.61597 156.477 3.37924C155.998 3.13775 155.366 3.01702 154.58 3.01702H151.484V16H149.722ZM156.569 9.46588L160.148 16H158.103L154.58 9.46588H156.569ZM168.737 16H166.89L172.231 1.45452H174.049L179.39 16H177.544L173.197 3.75566H173.083L168.737 16ZM169.419 10.3182H176.862V11.8807H169.419V10.3182ZM193.19 1.45452V16H191.485L183.559 4.57952H183.417V16H181.656V1.45452H183.36L191.315 12.9034H191.457V1.45452H193.19ZM201.203 16H196.714V1.45452H201.402C202.813 1.45452 204.02 1.74572 205.024 2.3281C206.028 2.90576 206.797 3.73672 207.332 4.821C207.867 5.90055 208.135 7.19318 208.135 8.69888C208.135 10.214 207.865 11.5185 207.325 12.6122C206.786 13.7012 206 14.5393 204.967 15.1264C203.935 15.7088 202.68 16 201.203 16ZM198.476 14.4375H201.089C202.292 14.4375 203.289 14.2055 204.08 13.7415C204.87 13.2775 205.46 12.617 205.848 11.7599C206.236 10.9029 206.43 9.88258 206.43 8.69888C206.43 7.52458 206.239 6.51371 205.855 5.66617C205.472 4.8139 204.899 4.16048 204.136 3.70594C203.374 3.24666 202.425 3.01702 201.288 3.01702H198.476V14.4375ZM217.311 1.45452L221.629 13.6989H221.8L226.118 1.45452H227.964L222.624 16H220.805L215.464 1.45452H217.311ZM230.23 16V1.45452H235.145C236.281 1.45452 237.214 1.64865 237.943 2.03691C238.672 2.42043 239.212 2.94836 239.562 3.62071C239.913 4.29306 240.088 5.05775 240.088 5.91475C240.088 6.77176 239.913 7.53168 239.562 8.19458C239.212 8.85748 238.675 9.37827 237.95 9.75708C237.226 10.1312 236.3 10.3182 235.173 10.3182H231.196V8.72727H235.116C235.893 8.72727 236.518 8.61358 236.991 8.38638C237.47 8.15908 237.815 7.83708 238.028 7.42048C238.246 6.99902 238.355 6.49714 238.355 5.91475C238.355 5.33237 238.246 4.82337 238.028 4.38776C237.811 3.95216 237.463 3.61597 236.984 3.37924C236.506 3.13775 235.874 3.01702 235.088 3.01702H231.991V16H230.23ZM237.077 9.46588L240.656 16H238.611L235.088 9.46588H237.077ZM248.648 16V1.45452H253.563C254.704 1.45452 255.637 1.66049 256.361 2.07242C257.09 2.47962 257.63 3.03123 257.98 3.72725C258.331 4.42327 258.506 5.19979 258.506 6.0568C258.506 6.91381 258.331 7.69268 257.98 8.39348C257.635 9.09418 257.1 9.65287 256.375 10.0696C255.651 10.4815 254.723 10.6875 253.591 10.6875H250.069V9.12498H253.534C254.316 9.12498 254.943 8.99008 255.417 8.72017C255.89 8.45027 256.233 8.08568 256.446 7.62638C256.664 7.16238 256.773 6.63917 256.773 6.0568C256.773 5.47441 256.664 4.95358 256.446 4.49429C256.233 4.03501 255.888 3.67517 255.409 3.41475C254.931 3.1496 254.297 3.01702 253.506 3.01702H250.409V16H248.648ZM261.343 16V1.45452H266.258C267.395 1.45452 268.327 1.64865 269.056 2.03691C269.786 2.42043 270.325 2.94836 270.676 3.62071C271.026 4.29306 271.201 5.05775 271.201 5.91475C271.201 6.77176 271.026 7.53168 270.676 8.19458C270.325 8.85748 269.788 9.37827 269.064 9.75708C268.339 10.1312 267.413 10.3182 266.287 10.3182H262.309V8.72727H266.23C267.006 8.72727 267.631 8.61358 268.105 8.38638C268.583 8.15908 268.929 7.83708 269.142 7.42048C269.359 6.99902 269.468 6.49714 269.468 5.91475C269.468 5.33237 269.359 4.82337 269.142 4.38776C268.924 3.95216 268.576 3.61597 268.098 3.37924C267.619 3.13775 266.987 3.01702 266.201 3.01702H263.105V16H261.343ZM268.19 9.46588L271.77 16H269.724L266.201 9.46588H268.19ZM286.409 8.72727C286.409 10.2614 286.132 11.5871 285.578 12.7045C285.024 13.822 284.264 14.6837 283.298 15.2898C282.332 15.8958 281.229 16.1989 279.989 16.1989C278.748 16.1989 277.645 15.8958 276.679 15.2898C275.713 14.6837 274.953 13.822 274.399 12.7045C273.845 11.5871 273.568 10.2614 273.568 8.72727C273.568 7.19317 273.845 5.86739 274.399 4.74997C274.953 3.63256 275.713 2.77081 276.679 2.16475C277.645 1.55869 278.748 1.25566 279.989 1.25566C281.229 1.25566 282.332 1.55869 283.298 2.16475C284.264 2.77081 285.024 3.63256 285.578 4.74997C286.132 5.86739 286.409 7.19317 286.409 8.72727ZM284.705 8.72727C284.705 7.46777 284.494 6.40481 284.072 5.53833C283.656 4.67185 283.09 4.01608 282.375 3.571C281.665 3.12593 280.869 2.90338 279.989 2.90338C279.108 2.90338 278.31 3.12593 277.595 3.571C276.885 4.01608 276.319 4.67185 275.898 5.53833C275.481 6.40481 275.273 7.46777 275.273 8.72727C275.273 9.98668 275.481 11.0497 275.898 11.9162C276.319 12.7827 276.885 13.4384 277.595 13.8835C278.31 14.3286 279.108 14.5511 279.989 14.5511C280.869 14.5511 281.665 14.3286 282.375 13.8835C283.09 13.4384 283.656 12.7827 284.072 11.9162C284.494 11.0497 284.705 9.98668 284.705 8.72727ZM294.939 1.45452H296.7V11.8523C296.7 12.7803 296.53 13.5687 296.189 14.2173C295.848 14.866 295.367 15.3584 294.747 15.6946C294.127 16.0308 293.395 16.1989 292.553 16.1989C291.757 16.1989 291.049 16.0545 290.429 15.7656C289.809 15.4721 289.321 15.0554 288.966 14.5156C288.611 13.9759 288.433 13.3343 288.433 12.5909H290.166C290.166 13.0028 290.268 13.3627 290.472 13.6705C290.68 13.9735 290.964 14.2102 291.324 14.3807C291.684 14.5511 292.093 14.6364 292.553 14.6364C293.059 14.6364 293.49 14.5298 293.845 14.3168C294.2 14.1037 294.47 13.7912 294.655 13.3793C294.844 12.9626 294.939 12.4536 294.939 11.8523V1.45452ZM300.23 16V1.45452H309.009V3.01702H301.991V7.93178H308.554V9.49428H301.991V14.4375H309.122V16H300.23ZM323.888 5.99998H322.126C322.022 5.49335 321.84 5.04827 321.58 4.66475C321.324 4.28123 321.011 3.95926 320.642 3.69884C320.277 3.43369 319.873 3.23483 319.428 3.10225C318.982 2.96968 318.518 2.90338 318.036 2.90338C317.155 2.90338 316.357 3.12593 315.642 3.571C314.932 4.01608 314.366 4.67185 313.945 5.53833C313.528 6.40481 313.32 7.46777 313.32 8.72727C313.32 9.98668 313.528 11.0497 313.945 11.9162C314.366 12.7827 314.932 13.4384 315.642 13.8835C316.357 14.3286 317.155 14.5511 318.036 14.5511C318.518 14.5511 318.982 14.4848 319.428 14.3523C319.873 14.2197 320.277 14.0232 320.642 13.7628C321.011 13.4976 321.324 13.1733 321.58 12.7898C321.84 12.4015 322.022 11.9564 322.126 11.4545H323.888C323.755 12.1979 323.514 12.8632 323.163 13.4503C322.813 14.0374 322.377 14.5369 321.857 14.9489C321.336 15.3561 320.751 15.6662 320.102 15.8793C319.458 16.0923 318.769 16.1989 318.036 16.1989C316.795 16.1989 315.692 15.8958 314.726 15.2898C313.76 14.6837 313 13.822 312.446 12.7045C311.892 11.5871 311.615 10.2614 311.615 8.72727C311.615 7.19317 311.892 5.86739 312.446 4.74997C313 3.63256 313.76 2.77081 314.726 2.16475C315.692 1.55869 316.795 1.25566 318.036 1.25566C318.769 1.25566 319.458 1.3622 320.102 1.57526C320.751 1.78833 321.336 2.10083 321.857 2.51276C322.377 2.91996 322.813 3.41711 323.163 4.00424C323.514 4.58663 323.755 5.25187 323.888 5.99998ZM325.939 3.01702V1.45452H336.848V3.01702H332.274V16H330.512V3.01702H325.939ZM347.521 5.09089C347.435 4.37119 347.09 3.81248 346.484 3.41475C345.878 3.01702 345.134 2.81816 344.254 2.81816C343.61 2.81816 343.046 2.92233 342.563 3.13066C342.085 3.33898 341.711 3.62544 341.441 3.99003C341.176 4.35461 341.043 4.76892 341.043 5.23293C341.043 5.62119 341.136 5.955 341.32 6.23435C341.51 6.50898 341.751 6.73862 342.045 6.92327C342.338 7.10318 342.646 7.25238 342.968 7.37068C343.29 7.48438 343.586 7.57668 343.856 7.64768L345.333 8.04548C345.712 8.14488 346.133 8.28218 346.597 8.45738C347.066 8.63258 347.513 8.87167 347.94 9.17467C348.371 9.47297 348.726 9.85648 349.005 10.3253C349.284 10.794 349.424 11.3693 349.424 12.0511C349.424 12.8371 349.218 13.5473 348.806 14.1818C348.399 14.8163 347.802 15.3205 347.016 15.6946C346.235 16.0687 345.286 16.2557 344.168 16.2557C343.127 16.2557 342.225 16.0876 341.462 15.7514C340.705 15.4152 340.108 14.9465 339.673 14.3452C339.242 13.7438 338.998 13.0455 338.941 12.25H340.759C340.807 12.7992 340.991 13.2538 341.313 13.6136C341.64 13.9687 342.052 14.2339 342.549 14.4091C343.051 14.5795 343.591 14.6648 344.168 14.6648C344.841 14.6648 345.444 14.5559 345.979 14.3381C346.514 14.1155 346.938 13.8078 347.251 13.4148C347.563 13.017 347.719 12.553 347.719 12.0227C347.719 11.5398 347.585 11.1468 347.315 10.8437C347.045 10.5407 346.69 10.2945 346.249 10.1051C345.809 9.91568 345.333 9.74998 344.822 9.60798L343.032 9.09657C341.896 8.76987 340.996 8.30348 340.333 7.69738C339.67 7.09138 339.339 6.29828 339.339 5.31816C339.339 4.50377 339.559 3.79353 339.999 3.18747C340.444 2.57667 341.041 2.10319 341.789 1.76702C342.542 1.42611 343.382 1.25566 344.31 1.25566C345.248 1.25566 346.081 1.42375 346.81 1.75992C347.54 2.09136 348.117 2.5459 348.543 3.12355C348.974 3.70121 349.201 4.35699 349.225 5.09089H347.521ZM358.939 10.9148C358.589 10.9148 358.288 10.7893 358.037 10.5384C357.786 10.2874 357.661 9.98668 357.661 9.63638C357.661 9.28598 357.786 8.98528 358.037 8.73438C358.288 8.48338 358.589 8.35798 358.939 8.35798C359.29 8.35798 359.59 8.48338 359.841 8.73438C360.092 8.98528 360.218 9.28598 360.218 9.63638C360.218 9.86838 360.158 10.0814 360.04 10.2756C359.926 10.4697 359.773 10.6259 359.578 10.7443C359.389 10.858 359.176 10.9148 358.939 10.9148ZM380.782 5.99998H379.021C378.917 5.49335 378.734 5.04827 378.474 4.66475C378.218 4.28123 377.906 3.95926 377.537 3.69884C377.172 3.43369 376.767 3.23483 376.322 3.10225C375.877 2.96968 375.413 2.90338 374.93 2.90338C374.049 2.90338 373.252 3.12593 372.537 3.571C371.826 4.01608 371.261 4.67185 370.839 5.53833C370.422 6.40481 370.214 7.46777 370.214 8.72727C370.214 9.98668 370.422 11.0497 370.839 11.9162C371.261 12.7827 371.826 13.4384 372.537 13.8835C373.252 14.3286 374.049 14.5511 374.93 14.5511C375.413 14.5511 375.877 14.4848 376.322 14.3523C376.767 14.2197 377.172 14.0232 377.537 13.7628C377.906 13.4976 378.218 13.1733 378.474 12.7898C378.734 12.4015 378.917 11.9564 379.021 11.4545H380.782C380.65 12.1979 380.408 12.8632 380.058 13.4503C379.708 14.0374 379.272 14.5369 378.751 14.9489C378.23 15.3561 377.645 15.6662 376.997 15.8793C376.353 16.0923 375.664 16.1989 374.93 16.1989C373.69 16.1989 372.586 15.8958 371.62 15.2898C370.654 14.6837 369.895 13.822 369.341 12.7045C368.787 11.5871 368.51 10.2614 368.51 8.72727C368.51 7.19317 368.787 5.86739 369.341 4.74997C369.895 3.63256 370.654 2.77081 371.62 2.16475C372.586 1.55869 373.69 1.25566 374.93 1.25566C375.664 1.25566 376.353 1.3622 376.997 1.57526C377.645 1.78833 378.23 2.10083 378.751 2.51276C379.272 2.91996 379.708 3.41711 380.058 4.00424C380.408 4.58663 380.65 5.25187 380.782 5.99998ZM383.629 16V1.45452H385.39V7.93178H393.146V1.45452H394.907V16H393.146V9.49428H385.39V16H383.629ZM399.03 16H397.183L402.524 1.45452H404.342L409.683 16H407.837L403.49 3.75566H403.376L399.03 16ZM399.712 10.3182H407.155V11.8807H399.712V10.3182ZM409.454 3.01702V1.45452H420.363V3.01702H415.789V16H414.028V3.01702H409.454ZM423.082 16V1.45452H428.167C429.18 1.45452 430.016 1.62971 430.674 1.98009C431.332 2.32574 431.822 2.79211 432.144 3.37924C432.466 3.96163 432.627 4.60793 432.627 5.31816C432.627 5.94316 432.516 6.45926 432.293 6.86646C432.076 7.27367 431.787 7.59558 431.427 7.83238C431.072 8.06908 430.686 8.24428 430.269 8.35798V8.49998C430.714 8.52838 431.162 8.68468 431.612 8.96868C432.061 9.25278 432.438 9.65998 432.741 10.1903C433.044 10.7206 433.195 11.3693 433.195 12.1364C433.195 12.8655 433.03 13.5213 432.698 14.1037C432.367 14.6861 431.844 15.1477 431.129 15.4886C430.414 15.8295 429.483 16 428.337 16H423.082ZM424.843 14.4375H428.337C429.488 14.4375 430.305 14.215 430.788 13.7699C431.275 13.3201 431.519 12.7756 431.519 12.1364C431.519 11.6439 431.394 11.1894 431.143 10.7727C430.892 10.3513 430.534 10.0152 430.07 9.76418C429.606 9.50848 429.057 9.38068 428.423 9.38068H424.843V14.4375ZM424.843 7.84657H428.11C428.64 7.84657 429.119 7.74237 429.545 7.53407C429.976 7.32577 430.317 7.03218 430.567 6.65339C430.823 6.2746 430.951 5.82953 430.951 5.31816C430.951 4.67896 430.728 4.13682 430.283 3.69174C429.838 3.24193 429.133 3.01702 428.167 3.01702H424.843V7.84657ZM448.362 8.72727C448.362 10.2614 448.085 11.5871 447.531 12.7045C446.977 13.822 446.217 14.6837 445.251 15.2898C444.286 15.8958 443.182 16.1989 441.942 16.1989C440.701 16.1989 439.598 15.8958 438.632 15.2898C437.666 14.6837 436.906 13.822 436.352 12.7045C435.798 11.5871 435.521 10.2614 435.521 8.72727C435.521 7.19317 435.798 5.86739 436.352 4.74997C436.906 3.63256 437.666 2.77081 438.632 2.16475C439.598 1.55869 440.701 1.25566 441.942 1.25566C443.182 1.25566 444.286 1.55869 445.251 2.16475C446.217 2.77081 446.977 3.63256 447.531 4.74997C448.085 5.86739 448.362 7.19317 448.362 8.72727ZM446.658 8.72727C446.658 7.46777 446.447 6.40481 446.026 5.53833C445.609 4.67185 445.043 4.01608 444.328 3.571C443.618 3.12593 442.822 2.90338 441.942 2.90338C441.061 2.90338 440.263 3.12593 439.548 3.571C438.838 4.01608 438.272 4.67185 437.851 5.53833C437.434 6.40481 437.226 7.46777 437.226 8.72727C437.226 9.98668 437.434 11.0497 437.851 11.9162C438.272 12.7827 438.838 13.4384 439.548 13.8835C440.263 14.3286 441.061 14.5511 441.942 14.5511C442.822 14.5511 443.618 14.3286 444.328 13.8835C445.043 13.4384 445.609 12.7827 446.026 11.9162C446.447 11.0497 446.658 9.98668 446.658 8.72727ZM449.923 3.01702V1.45452H460.832V3.01702H456.258V16H454.497V3.01702H449.923ZM471.505 5.09089C471.42 4.37119 471.074 3.81248 470.468 3.41475C469.862 3.01702 469.119 2.81816 468.238 2.81816C467.594 2.81816 467.031 2.92233 466.548 3.13066C466.069 3.33898 465.695 3.62544 465.425 3.99003C465.16 4.35461 465.028 4.76892 465.028 5.23293C465.028 5.62119 465.12 5.955 465.305 6.23435C465.494 6.50898 465.736 6.73862 466.029 6.92327C466.323 7.10318 466.63 7.25238 466.952 7.37068C467.274 7.48438 467.57 7.57668 467.84 7.64768L469.317 8.04548C469.696 8.14488 470.118 8.28218 470.582 8.45738C471.05 8.63258 471.498 8.87167 471.924 9.17467C472.355 9.47297 472.71 9.85648 472.989 10.3253C473.269 10.794 473.408 11.3693 473.408 12.0511C473.408 12.8371 473.202 13.5473 472.79 14.1818C472.383 14.8163 471.787 15.3205 471.001 15.6946C470.219 16.0687 469.27 16.2557 468.153 16.2557C467.111 16.2557 466.209 16.0876 465.447 15.7514C464.689 15.4152 464.093 14.9465 463.657 14.3452C463.226 13.7438 462.982 13.0455 462.925 12.25H464.744C464.791 12.7992 464.976 13.2538 465.298 13.6136C465.624 13.9687 466.036 14.2339 466.533 14.4091C467.035 14.5795 467.575 14.6648 468.153 14.6648C468.825 14.6648 469.429 14.5559 469.964 14.3381C470.499 14.1155 470.923 13.8078 471.235 13.4148C471.548 13.017 471.704 12.553 471.704 12.0227C471.704 11.5398 471.569 11.1468 471.299 10.8437C471.029 10.5407 470.674 10.2945 470.234 10.1051C469.793 9.91568 469.317 9.74998 468.806 9.60798L467.016 9.09657C465.88 8.76987 464.98 8.30348 464.317 7.69738C463.655 7.09138 463.323 6.29828 463.323 5.31816C463.323 4.50377 463.543 3.79353 463.984 3.18747C464.429 2.57667 465.025 2.10319 465.773 1.76702C466.526 1.42611 467.367 1.25566 468.295 1.25566C469.232 1.25566 470.066 1.42375 470.795 1.75992C471.524 2.09136 472.102 2.5459 472.528 3.12355C472.959 3.70121 473.186 4.35699 473.21 5.09089H471.505ZM482.924 10.9148C482.573 10.9148 482.273 10.7893 482.022 10.5384C481.771 10.2874 481.645 9.98668 481.645 9.63638C481.645 9.28598 481.771 8.98528 482.022 8.73438C482.273 8.48338 482.573 8.35798 482.924 8.35798C483.274 8.35798 483.575 8.48338 483.826 8.73438C484.077 8.98528 484.202 9.28598 484.202 9.63638C484.202 9.86838 484.143 10.0814 484.025 10.2756C483.911 10.4697 483.757 10.6259 483.563 10.7443C483.373 10.858 483.16 10.9148 482.924 10.9148ZM519.284 1.45452L523.602 13.6989H523.772L528.091 1.45452H529.937L524.596 16H522.778L517.437 1.45452H519.284ZM533.964 1.45452V16H532.203V1.45452H533.964ZM545.45 5.09089C545.365 4.37119 545.019 3.81248 544.413 3.41475C543.807 3.01702 543.064 2.81816 542.183 2.81816C541.539 2.81816 540.976 2.92233 540.493 3.13066C540.015 3.33898 539.641 3.62544 539.371 3.99003C539.106 4.35461 538.973 4.76892 538.973 5.23293C538.973 5.62119 539.065 5.955 539.25 6.23435C539.439 6.50898 539.681 6.73862 539.974 6.92327C540.268 7.10318 540.576 7.25238 540.898 7.37068C541.22 7.48438 541.516 7.57668 541.786 7.64768L543.263 8.04548C543.642 8.14488 544.063 8.28218 544.527 8.45738C544.996 8.63258 545.443 8.87167 545.869 9.17467C546.3 9.47297 546.655 9.85648 546.935 10.3253C547.214 10.794 547.354 11.3693 547.354 12.0511C547.354 12.8371 547.148 13.5473 546.736 14.1818C546.329 14.8163 545.732 15.3205 544.946 15.6946C544.165 16.0687 543.215 16.2557 542.098 16.2557C541.056 16.2557 540.154 16.0876 539.392 15.7514C538.634 15.4152 538.038 14.9465 537.602 14.3452C537.171 13.7438 536.928 13.0455 536.871 12.25H538.689C538.736 12.7992 538.921 13.2538 539.243 13.6136C539.57 13.9687 539.982 14.2339 540.479 14.4091C540.981 14.5795 541.52 14.6648 542.098 14.6648C542.77 14.6648 543.374 14.5559 543.909 14.3381C544.444 14.1155 544.868 13.8078 545.18 13.4148C545.493 13.017 545.649 12.553 545.649 12.0227C545.649 11.5398 545.514 11.1468 545.244 10.8437C544.974 10.5407 544.619 10.2945 544.179 10.1051C543.739 9.91568 543.263 9.74998 542.751 9.60798L540.962 9.09657C539.825 8.76987 538.926 8.30348 538.263 7.69738C537.6 7.09138 537.268 6.29828 537.268 5.31816C537.268 4.50377 537.489 3.79353 537.929 3.18747C538.374 2.57667 538.971 2.10319 539.719 1.76702C540.472 1.42611 541.312 1.25566 542.24 1.25566C543.178 1.25566 544.011 1.42375 544.74 1.75992C545.469 2.09136 546.047 2.5459 546.473 3.12355C546.904 3.70121 547.131 4.35699 547.155 5.09089H545.45ZM559.795 1.45452H561.556V11.0852C561.556 12.0795 561.322 12.9673 560.853 13.7486C560.389 14.5251 559.734 15.1383 558.886 15.5881C558.038 16.0331 557.044 16.2557 555.903 16.2557C554.762 16.2557 553.768 16.0331 552.92 15.5881C552.073 15.1383 551.414 14.5251 550.946 13.7486C550.482 12.9673 550.25 12.0795 550.25 11.0852V1.45452H552.011V10.9432C552.011 11.6534 552.167 12.2855 552.48 12.8395C552.792 13.3887 553.237 13.822 553.815 14.1392C554.397 14.4517 555.093 14.608 555.903 14.608C556.713 14.608 557.409 14.4517 557.991 14.1392C558.574 13.822 559.019 13.3887 559.326 12.8395C559.639 12.2855 559.795 11.6534 559.795 10.9432V1.45452ZM565.67 16H563.824L569.165 1.45452H570.983L576.324 16H574.477L570.131 3.75566H570.017L565.67 16ZM566.352 10.3182H573.795V11.8807H566.352V10.3182ZM578.589 16V1.45452H580.351V14.4375H587.112V16H578.589ZM596.459 10.9148C596.108 10.9148 595.808 10.7893 595.557 10.5384C595.306 10.2874 595.18 9.98668 595.18 9.63638C595.18 9.28598 595.306 8.98528 595.557 8.73438C595.808 8.48338 596.108 8.35798 596.459 8.35798C596.809 8.35798 597.11 8.48338 597.361 8.73438C597.612 8.98528 597.737 9.28598 597.737 9.63638C597.737 9.86838 597.678 10.0814 597.56 10.2756C597.446 10.4697 597.292 10.6259 597.098 10.7443C596.909 10.858 596.696 10.9148 596.459 10.9148ZM616.143 1.45452H617.904V11.0852C617.904 12.0795 617.67 12.9673 617.201 13.7486C616.737 14.5251 616.081 15.1383 615.234 15.5881C614.386 16.0331 613.392 16.2557 612.251 16.2557C611.11 16.2557 610.115 16.0331 609.268 15.5881C608.42 15.1383 607.762 14.5251 607.293 13.7486C606.829 12.9673 606.597 12.0795 606.597 11.0852V1.45452H608.359V10.9432C608.359 11.6534 608.515 12.2855 608.827 12.8395C609.14 13.3887 609.585 13.822 610.163 14.1392C610.745 14.4517 611.441 14.608 612.251 14.608C613.06 14.608 613.756 14.4517 614.339 14.1392C614.921 13.822 615.366 13.3887 615.674 12.8395C615.987 12.2855 616.143 11.6534 616.143 10.9432V1.45452ZM622.274 1.45452L626.024 7.50568H626.137L629.887 1.45452H631.961L627.387 8.72727L631.961 16H629.887L626.137 10.0625H626.024L622.274 16H620.2L624.887 8.72727L620.2 1.45452H622.274ZM639.168 0.772705L634.481 18.1875H632.947L637.634 0.772705H639.168ZM650.928 1.45452H652.689V11.0852C652.689 12.0795 652.455 12.9673 651.986 13.7486C651.522 14.5251 650.866 15.1383 650.019 15.5881C649.171 16.0331 648.177 16.2557 647.036 16.2557C645.895 16.2557 644.9 16.0331 644.053 15.5881C643.205 15.1383 642.547 14.5251 642.078 13.7486C641.614 12.9673 641.382 12.0795 641.382 11.0852V1.45452H643.144V10.9432C643.144 11.6534 643.3 12.2855 643.613 12.8395C643.925 13.3887 644.37 13.822 644.948 14.1392C645.53 14.4517 646.226 14.608 647.036 14.608C647.846 14.608 648.542 14.4517 649.124 14.1392C649.706 13.822 650.151 13.3887 650.459 12.8395C650.772 12.2855 650.928 11.6534 650.928 10.9432V1.45452ZM657.968 1.45452V16H656.207V1.45452H657.968ZM668.119 10.9148C667.769 10.9148 667.468 10.7893 667.217 10.5384C666.966 10.2874 666.841 9.98668 666.841 9.63638C666.841 9.28598 666.966 8.98528 667.217 8.73438C667.468 8.48338 667.769 8.35798 668.119 8.35798C668.469 8.35798 668.77 8.48338 669.021 8.73438C669.272 8.98528 669.397 9.28598 669.397 9.63638C669.397 9.86838 669.338 10.0814 669.22 10.2756C669.106 10.4697 668.952 10.6259 668.758 10.7443C668.569 10.858 668.356 10.9148 668.119 10.9148ZM682.746 16H678.257V1.45452H682.945C684.356 1.45452 685.563 1.74572 686.567 2.3281C687.571 2.90576 688.34 3.73672 688.875 4.821C689.41 5.90055 689.678 7.19318 689.678 8.69888C689.678 10.214 689.408 11.5185 688.868 12.6122C688.328 13.7012 687.542 14.5393 686.51 15.1264C685.478 15.7088 684.223 16 682.746 16ZM680.019 14.4375H682.632C683.835 14.4375 684.832 14.2055 685.623 13.7415C686.413 13.2775 687.003 12.617 687.391 11.7599C687.779 10.9029 687.973 9.88258 687.973 8.69888C687.973 7.52458 687.782 6.51371 687.398 5.66617C687.015 4.8139 686.442 4.16048 685.679 3.70594C684.917 3.24666 683.968 3.01702 682.831 3.01702H680.019V14.4375ZM694.394 1.45452V16H692.632V1.45452H694.394ZM707.869 5.99998C707.712 5.52176 707.506 5.09326 707.251 4.71446C707 4.33095 706.699 4.00424 706.349 3.73435C706.003 3.46447 705.61 3.25849 705.17 3.11645C704.729 2.9744 704.246 2.90338 703.721 2.90338C702.859 2.90338 702.076 3.12593 701.37 3.571C700.665 4.01608 700.103 4.67185 699.687 5.53833C699.27 6.40481 699.062 7.46777 699.062 8.72727C699.062 9.98668 699.272 11.0497 699.694 11.9162C700.115 12.7827 700.686 13.4384 701.406 13.8835C702.125 14.3286 702.935 14.5511 703.835 14.5511C704.668 14.5511 705.402 14.3736 706.036 14.0185C706.675 13.6586 707.173 13.152 707.528 12.4986C707.888 11.8404 708.067 11.0663 708.067 10.1761L708.607 10.2898H704.232V8.72727H709.772V10.2898C709.772 11.4877 709.516 12.5294 709.005 13.4148C708.498 14.3002 707.798 14.9867 706.903 15.4744C706.013 15.9574 704.99 16.1989 703.835 16.1989C702.547 16.1989 701.415 15.8958 700.44 15.2898C699.469 14.6837 698.711 13.822 698.167 12.7045C697.627 11.5871 697.357 10.2614 697.357 8.72727C697.357 7.57667 697.511 6.54212 697.819 5.62356C698.131 4.70026 698.572 3.91428 699.14 3.2656C699.708 2.61693 700.38 2.11976 701.157 1.77412C701.933 1.42847 702.788 1.25566 703.721 1.25566C704.488 1.25566 705.203 1.37167 705.866 1.60367C706.533 1.83095 707.128 2.15528 707.648 2.57668C708.174 2.99335 708.612 3.49288 708.962 4.07526C709.313 4.65292 709.554 5.29449 709.687 5.99998H707.869ZM714.55 1.45452V16H712.789V1.45452H714.55ZM717.286 3.01702V1.45452H728.195V3.01702H723.621V16H721.86V3.01702H717.286ZM729.811 16H727.964L733.305 1.45452H735.124L740.464 16H738.618L734.271 3.75566H734.158L729.811 16ZM730.493 10.3182H737.936V11.8807H730.493V10.3182ZM742.73 16V1.45452H744.491V14.4375H751.253V16H742.73ZM767.56 5.09089C767.474 4.37119 767.129 3.81248 766.523 3.41475C765.917 3.01702 765.173 2.81816 764.293 2.81816C763.649 2.81816 763.085 2.92233 762.602 3.13066C762.124 3.33898 761.75 3.62544 761.48 3.99003C761.215 4.35461 761.082 4.76892 761.082 5.23293C761.082 5.62119 761.175 5.955 761.359 6.23435C761.549 6.50898 761.79 6.73862 762.084 6.92327C762.377 7.10318 762.685 7.25238 763.007 7.37068C763.329 7.48438 763.625 7.57668 763.895 7.64768L765.372 8.04548C765.751 8.14488 766.172 8.28218 766.636 8.45738C767.105 8.63258 767.553 8.87167 767.979 9.17467C768.41 9.47297 768.765 9.85648 769.044 10.3253C769.323 10.794 769.463 11.3693 769.463 12.0511C769.463 12.8371 769.257 13.5473 768.845 14.1818C768.438 14.8163 767.841 15.3205 767.055 15.6946C766.274 16.0687 765.325 16.2557 764.207 16.2557C763.166 16.2557 762.264 16.0876 761.501 15.7514C760.744 15.4152 760.147 14.9465 759.712 14.3452C759.281 13.7438 759.037 13.0455 758.98 12.25H760.798C760.846 12.7992 761.03 13.2538 761.352 13.6136C761.679 13.9687 762.091 14.2339 762.588 14.4091C763.09 14.5795 763.63 14.6648 764.207 14.6648C764.88 14.6648 765.483 14.5559 766.018 14.3381C766.554 14.1155 766.977 13.8078 767.29 13.4148C767.602 13.017 767.759 12.553 767.759 12.0227C767.759 11.5398 767.624 11.1468 767.354 10.8437C767.084 10.5407 766.729 10.2945 766.288 10.1051C765.848 9.91568 765.372 9.74998 764.861 9.60798L763.071 9.09657C761.935 8.76987 761.035 8.30348 760.372 7.69738C759.709 7.09138 759.378 6.29828 759.378 5.31816C759.378 4.50377 759.598 3.79353 760.038 3.18747C760.483 2.57667 761.08 2.10319 761.828 1.76702C762.581 1.42611 763.421 1.25566 764.349 1.25566C765.287 1.25566 766.12 1.42375 766.849 1.75992C767.579 2.09136 768.156 2.5459 768.582 3.12355C769.013 3.70121 769.241 4.35699 769.264 5.09089H767.56ZM772.359 16V1.45452H781.137V3.01702H774.12V7.93178H780.683V9.49428H774.12V14.4375H781.251V16H772.359ZM784.312 16V1.45452H789.227C790.363 1.45452 791.296 1.64865 792.025 2.03691C792.754 2.42043 793.294 2.94836 793.645 3.62071C793.995 4.29306 794.17 5.05775 794.17 5.91475C794.17 6.77176 793.995 7.53168 793.645 8.19458C793.294 8.85748 792.757 9.37827 792.032 9.75708C791.308 10.1312 790.382 10.3182 789.255 10.3182H785.278V8.72727H789.199C789.975 8.72727 790.6 8.61358 791.074 8.38638C791.552 8.15908 791.897 7.83708 792.11 7.42048C792.328 6.99902 792.437 6.49714 792.437 5.91475C792.437 5.33237 792.328 4.82337 792.11 4.38776C791.893 3.95216 791.545 3.61597 791.066 3.37924C790.588 3.13775 789.956 3.01702 789.17 3.01702H786.074V16H784.312ZM791.159 9.46588L794.738 16H792.693L789.17 9.46588H791.159ZM797.37 1.45452L801.688 13.6989H801.858L806.176 1.45452H808.023L802.682 16H800.864L795.523 1.45452H797.37ZM812.05 1.45452V16H810.289V1.45452H812.05ZM827.286 5.99998H825.525C825.421 5.49335 825.238 5.04827 824.978 4.66475C824.722 4.28123 824.41 3.95926 824.04 3.69884C823.676 3.43369 823.271 3.23483 822.826 3.10225C822.381 2.96968 821.917 2.90338 821.434 2.90338C820.553 2.90338 819.755 3.12593 819.04 3.571C818.33 4.01608 817.764 4.67185 817.343 5.53833C816.926 6.40481 816.718 7.46777 816.718 8.72727C816.718 9.98668 816.926 11.0497 817.343 11.9162C817.764 12.7827 818.33 13.4384 819.04 13.8835C819.755 14.3286 820.553 14.5511 821.434 14.5511C821.917 14.5511 822.381 14.4848 822.826 14.3523C823.271 14.2197 823.676 14.0232 824.04 13.7628C824.41 13.4976 824.722 13.1733 824.978 12.7898C825.238 12.4015 825.421 11.9564 825.525 11.4545H827.286C827.154 12.1979 826.912 12.8632 826.562 13.4503C826.211 14.0374 825.776 14.5369 825.255 14.9489C824.734 15.3561 824.149 15.6662 823.501 15.8793C822.857 16.0923 822.168 16.1989 821.434 16.1989C820.193 16.1989 819.09 15.8958 818.124 15.2898C817.158 14.6837 816.398 13.822 815.844 12.7045C815.29 11.5871 815.013 10.2614 815.013 8.72727C815.013 7.19317 815.29 5.86739 815.844 4.74997C816.398 3.63256 817.158 2.77081 818.124 2.16475C819.09 1.55869 820.193 1.25566 821.434 1.25566C822.168 1.25566 822.857 1.3622 823.501 1.57526C824.149 1.78833 824.734 2.10083 825.255 2.51276C825.776 2.91996 826.211 3.41711 826.562 4.00424C826.912 4.58663 827.154 5.25187 827.286 5.99998ZM830.132 16V1.45452H838.911V3.01702H831.894V7.93178H838.456V9.49428H831.894V14.4375H839.025V16H830.132ZM850.04 5.09089C849.955 4.37119 849.609 3.81248 849.003 3.41475C848.397 3.01702 847.654 2.81816 846.773 2.81816C846.129 2.81816 845.566 2.92233 845.083 3.13066C844.605 3.33898 844.23 3.62544 843.961 3.99003C843.695 4.35461 843.563 4.76892 843.563 5.23293C843.563 5.62119 843.655 5.955 843.84 6.23435C844.029 6.50898 844.271 6.73862 844.564 6.92327C844.858 7.10318 845.166 7.25238 845.488 7.37068C845.81 7.48438 846.105 7.57668 846.375 7.64768L847.853 8.04548C848.231 8.14488 848.653 8.28218 849.117 8.45738C849.586 8.63258 850.033 8.87167 850.459 9.17467C850.89 9.47297 851.245 9.85648 851.525 10.3253C851.804 10.794 851.944 11.3693 851.944 12.0511C851.944 12.8371 851.738 13.5473 851.326 14.1818C850.918 14.8163 850.322 15.3205 849.536 15.6946C848.755 16.0687 847.805 16.2557 846.688 16.2557C845.646 16.2557 844.744 16.0876 843.982 15.7514C843.224 15.4152 842.628 14.9465 842.192 14.3452C841.761 13.7438 841.517 13.0455 841.461 12.25H843.279C843.326 12.7992 843.511 13.2538 843.833 13.6136C844.159 13.9687 844.571 14.2339 845.069 14.4091C845.57 14.5795 846.11 14.6648 846.688 14.6648C847.36 14.6648 847.964 14.5559 848.499 14.3381C849.034 14.1155 849.458 13.8078 849.77 13.4148C850.083 13.017 850.239 12.553 850.239 12.0227C850.239 11.5398 850.104 11.1468 849.834 10.8437C849.564 10.5407 849.209 10.2945 848.769 10.1051C848.328 9.91568 847.853 9.74998 847.341 9.60798L845.551 9.09657C844.415 8.76987 843.516 8.30348 842.853 7.69738C842.19 7.09138 841.858 6.29828 841.858 5.31816C841.858 4.50377 842.078 3.79353 842.519 3.18747C842.964 2.57667 843.56 2.10319 844.309 1.76702C845.061 1.42611 845.902 1.25566 846.83 1.25566C847.767 1.25566 848.601 1.42375 849.33 1.75992C850.059 2.09136 850.637 2.5459 851.063 3.12355C851.494 3.70121 851.721 4.35699 851.745 5.09089H850.04ZM861.061 16H859.214L864.555 1.45452H866.374L871.714 16H869.868L865.521 3.75566H865.408L861.061 16ZM861.743 10.3182H869.186V11.8807H861.743V10.3182ZM885.514 1.45452V16H883.81L875.884 4.57952H875.741V16H873.98V1.45452H875.685L883.639 12.9034H883.781V1.45452H885.514ZM893.527 16H889.039V1.45452H893.726C895.137 1.45452 896.345 1.74572 897.348 2.3281C898.352 2.90576 899.122 3.73672 899.657 4.821C900.192 5.90055 900.459 7.19318 900.459 8.69888C900.459 10.214 900.189 11.5185 899.65 12.6122C899.11 13.7012 898.324 14.5393 897.292 15.1264C896.259 15.7088 895.005 16 893.527 16ZM890.8 14.4375H893.414C894.616 14.4375 895.613 14.2055 896.404 13.7415C897.194 13.2775 897.784 12.617 898.172 11.7599C898.56 10.9029 898.755 9.88258 898.755 8.69888C898.755 7.52458 898.563 6.51371 898.179 5.66617C897.796 4.8139 897.223 4.16048 896.461 3.70594C895.698 3.24666 894.749 3.01702 893.613 3.01702H890.8V14.4375ZM911.681 16L907.703 1.45452H909.493L912.533 13.3011H912.675L915.772 1.45452H917.76L920.857 13.3011H920.999L924.039 1.45452H925.828L921.851 16H920.033L916.823 4.40907H916.709L913.499 16H911.681ZM928.023 16V1.45452H936.801V3.01702H929.784V7.93178H936.347V9.49428H929.784V14.4375H936.915V16H928.023ZM939.976 16V1.45452H945.061C946.075 1.45452 946.91 1.62971 947.569 1.98009C948.227 2.32574 948.717 2.79211 949.039 3.37924C949.361 3.96163 949.522 4.60793 949.522 5.31816C949.522 5.94316 949.41 6.45926 949.188 6.86646C948.97 7.27367 948.681 7.59558 948.321 7.83238C947.966 8.06908 947.58 8.24428 947.164 8.35798V8.49998C947.609 8.52838 948.056 8.68468 948.506 8.96868C948.956 9.25278 949.332 9.65998 949.635 10.1903C949.938 10.7206 950.09 11.3693 950.09 12.1364C950.09 12.8655 949.924 13.5213 949.593 14.1037C949.261 14.6861 948.738 15.1477 948.023 15.4886C947.308 15.8295 946.378 16 945.232 16H939.976ZM941.738 14.4375H945.232C946.382 14.4375 947.199 14.215 947.682 13.7699C948.17 13.3201 948.414 12.7756 948.414 12.1364C948.414 11.6439 948.288 11.1894 948.037 10.7727C947.786 10.3513 947.429 10.0152 946.965 9.76418C946.501 9.50848 945.952 9.38068 945.317 9.38068H941.738V14.4375ZM941.738 7.84657H945.005C945.535 7.84657 946.013 7.74237 946.439 7.53407C946.87 7.32577 947.211 7.03218 947.462 6.65339C947.718 6.2746 947.846 5.82953 947.846 5.31816C947.846 4.67896 947.623 4.13682 947.178 3.69174C946.733 3.24193 946.027 3.01702 945.061 3.01702H941.738V7.84657ZM960.939 5.09089C960.853 4.37119 960.508 3.81248 959.902 3.41475C959.296 3.01702 958.552 2.81816 957.672 2.81816C957.028 2.81816 956.464 2.92233 955.981 3.13066C955.503 3.33898 955.129 3.62544 954.859 3.99003C954.594 4.35461 954.461 4.76892 954.461 5.23293C954.461 5.62119 954.554 5.955 954.738 6.23435C954.928 6.50898 955.169 6.73862 955.463 6.92327C955.756 7.10318 956.064 7.25238 956.386 7.37068C956.708 7.48438 957.004 7.57668 957.274 7.64768L958.751 8.04548C959.13 8.14488 959.551 8.28218 960.015 8.45738C960.484 8.63258 960.931 8.87167 961.358 9.17467C961.788 9.47297 962.144 9.85648 962.423 10.3253C962.702 10.794 962.842 11.3693 962.842 12.0511C962.842 12.8371 962.636 13.5473 962.224 14.1818C961.817 14.8163 961.22 15.3205 960.434 15.6946C959.653 16.0687 958.704 16.2557 957.586 16.2557C956.545 16.2557 955.643 16.0876 954.88 15.7514C954.123 15.4152 953.526 14.9465 953.091 14.3452C952.66 13.7438 952.416 13.0455 952.359 12.25H954.177C954.225 12.7992 954.409 13.2538 954.731 13.6136C955.058 13.9687 955.47 14.2339 955.967 14.4091C956.469 14.5795 957.009 14.6648 957.586 14.6648C958.259 14.6648 958.862 14.5559 959.397 14.3381C959.932 14.1155 960.356 13.8078 960.669 13.4148C960.981 13.017 961.137 12.553 961.137 12.0227C961.137 11.5398 961.002 11.1468 960.733 10.8437C960.463 10.5407 960.108 10.2945 959.667 10.1051C959.227 9.91568 958.751 9.74998 958.24 9.60798L956.45 9.09657C955.314 8.76987 954.414 8.30348 953.751 7.69738C953.088 7.09138 952.757 6.29828 952.757 5.31816C952.757 4.50377 952.977 3.79353 953.417 3.18747C953.862 2.57667 954.459 2.10319 955.207 1.76702C955.96 1.42611 956.8 1.25566 957.728 1.25566C958.666 1.25566 959.499 1.42375 960.228 1.75992C960.958 2.09136 961.535 2.5459 961.961 3.12355C962.392 3.70121 962.619 4.35699 962.643 5.09089H960.939ZM967.499 1.45452V16H965.738V1.45452H967.499ZM970.235 3.01702V1.45452H981.14V3.01702H976.57V16H974.81V3.01702H970.235ZM983.86 16V1.45452H992.64V3.01702H985.62V7.93178H992.19V9.49428H985.62V14.4375H992.75V16H983.86ZM1003.77 5.09089C1003.69 4.37119 1003.34 3.81248 1002.73 3.41475C1002.13 3.01702 1001.38 2.81816 1000.5 2.81816C999.86 2.81816 999.3 2.92233 998.81 3.13066C998.33 3.33898 997.96 3.62544 997.69 3.99003C997.43 4.35461 997.29 4.76892 997.29 5.23293C997.29 5.62119 997.39 5.955 997.57 6.23435C997.76 6.50898 998 6.73862 998.29 6.92327C998.59 7.10318 998.9 7.25238 999.22 7.37068C999.54 7.48438 999.84 7.57668 1000.11 7.64768L1001.58 8.04548C1001.96 8.14488 1002.38 8.28218 1002.85 8.45738C1003.32 8.63258 1003.76 8.87167 1004.19 9.17467C1004.62 9.47297 1004.98 9.85648 1005.25 10.3253C1005.53 10.794 1005.67 11.3693 1005.67 12.0511C1005.67 12.8371 1005.47 13.5473 1005.06 14.1818C1004.65 14.8163 1004.05 15.3205 1003.27 15.6946C1002.49 16.0687 1001.54 16.2557 1000.42 16.2557C999.38 16.2557 998.47 16.0876 997.71 15.7514C996.95 15.4152 996.36 14.9465 995.92 14.3452C995.49 13.7438 995.25 13.0455 995.19 12.25H997.01C997.06 12.7992 997.24 13.2538 997.56 13.6136C997.89 13.9687 998.3 14.2339 998.8 14.4091C999.3 14.5795 999.84 14.6648 1000.42 14.6648C1001.09 14.6648 1001.69 14.5559 1002.23 14.3381C1002.76 14.1155 1003.19 13.8078 1003.5 13.4148C1003.81 13.017 1003.97 12.553 1003.97 12.0227C1003.97 11.5398 1003.83 11.1468 1003.56 10.8437C1003.29 10.5407 1002.94 10.2945 1002.5 10.1051C1002.06 9.91568 1001.58 9.74998 1001.07 9.60798L999.28 9.09657C998.15 8.76987 997.25 8.30348 996.58 7.69738C995.92 7.09138 995.59 6.29828 995.59 5.31816C995.59 4.50377 995.81 3.79353 996.25 3.18747C996.69 2.57667 997.29 2.10319 998.04 1.76702C998.79 1.42611 999.63 1.25566 1000.56 1.25566C1001.5 1.25566 1002.33 1.42375 1003.06 1.75992C1003.79 2.09136 1004.37 2.5459 1004.79 3.12355C1005.22 3.70121 1005.45 4.35699 1005.48 5.09089H1003.77ZM1015.19 10.9148C1014.84 10.9148 1014.54 10.7893 1014.29 10.5384C1014.04 10.2874 1013.91 9.98668 1013.91 9.63638C1013.91 9.28598 1014.04 8.98528 1014.29 8.73438C1014.54 8.48338 1014.84 8.35798 1015.19 8.35798C1015.54 8.35798 1015.84 8.48338 1016.09 8.73438C1016.34 8.98528 1016.47 9.28598 1016.47 9.63638C1016.47 9.86838 1016.41 10.0814 1016.29 10.2756C1016.18 10.4697 1016.02 10.6259 1015.83 10.7443C1015.64 10.858 1015.43 10.9148 1015.19 10.9148ZM1027.09 1.45452V16H1025.33V1.45452H1027.09ZM1042.15 1.45452V16H1040.45L1032.52 4.57952H1032.38V16H1030.62V1.45452H1032.33L1040.28 12.9034H1040.42V1.45452H1042.15ZM1044.88 3.01702V1.45452H1055.79V3.01702H1051.22V16H1049.46V3.01702H1044.88ZM1058.51 16V1.45452H1063.43C1064.56 1.45452 1065.5 1.64865 1066.22 2.03691C1066.95 2.42043 1067.49 2.94836 1067.84 3.62071C1068.19 4.29306 1068.37 5.05775 1068.37 5.91475C1068.37 6.77176 1068.19 7.53168 1067.84 8.19458C1067.49 8.85748 1066.96 9.37827 1066.23 9.75708C1065.51 10.1312 1064.58 10.3182 1063.45 10.3182H1059.48V8.72727H1063.4C1064.17 8.72727 1064.8 8.61358 1065.27 8.38638C1065.75 8.15908 1066.1 7.83708 1066.31 7.42048C1066.53 6.99902 1066.64 6.49714 1066.64 5.91475C1066.64 5.33237 1066.53 4.82337 1066.31 4.38776C1066.09 3.95216 1065.74 3.61597 1065.27 3.37924C1064.79 3.13775 1064.16 3.01702 1063.37 3.01702H1060.27V16H1058.51ZM1065.36 9.46588L1068.94 16H1066.89L1063.37 9.46588H1065.36ZM1071.9 16H1070.05L1075.4 1.45452H1077.21L1082.55 16H1080.71L1076.36 3.75566H1076.25L1071.9 16ZM1072.58 10.3182H1080.03V11.8807H1072.58V10.3182ZM1096.35 1.45452V16H1094.65L1086.72 4.57952H1086.58V16H1084.82V1.45452H1086.52L1094.48 12.9034H1094.62V1.45452H1096.35ZM1099.88 16V1.45452H1108.66V3.01702H1101.64V7.93178H1108.2V9.49428H1101.64V14.4375H1108.77V16H1099.88ZM1111.04 3.01702V1.45452H1121.95V3.01702H1117.37V16H1115.61V3.01702H1111.04ZM1138.24 5.09089C1138.16 4.37119 1137.81 3.81248 1137.21 3.41475C1136.6 3.01702 1135.86 2.81816 1134.98 2.81816C1134.33 2.81816 1133.77 2.92233 1133.29 3.13066C1132.81 3.33898 1132.43 3.62544 1132.16 3.99003C1131.9 4.35461 1131.77 4.76892 1131.77 5.23293C1131.77 5.62119 1131.86 5.955 1132.04 6.23435C1132.23 6.50898 1132.47 6.73862 1132.77 6.92327C1133.06 7.10318 1133.37 7.25238 1133.69 7.37068C1134.01 7.48438 1134.31 7.57668 1134.58 7.64768L1136.06 8.04548C1136.43 8.14488 1136.86 8.28218 1137.32 8.45738C1137.79 8.63258 1138.24 8.87167 1138.66 9.17467C1139.09 9.47297 1139.45 9.85648 1139.73 10.3253C1140.01 10.794 1140.15 11.3693 1140.15 12.0511C1140.15 12.8371 1139.94 13.5473 1139.53 14.1818C1139.12 14.8163 1138.52 15.3205 1137.74 15.6946C1136.96 16.0687 1136.01 16.2557 1134.89 16.2557C1133.85 16.2557 1132.95 16.0876 1132.19 15.7514C1131.43 15.4152 1130.83 14.9465 1130.4 14.3452C1129.96 13.7438 1129.72 13.0455 1129.66 12.25H1131.48C1131.53 12.7992 1131.71 13.2538 1132.04 13.6136C1132.36 13.9687 1132.77 14.2339 1133.27 14.4091C1133.77 14.5795 1134.31 14.6648 1134.89 14.6648C1135.56 14.6648 1136.17 14.5559 1136.7 14.3381C1137.24 14.1155 1137.66 13.8078 1137.97 13.4148C1138.29 13.017 1138.44 12.553 1138.44 12.0227C1138.44 11.5398 1138.31 11.1468 1138.04 10.8437C1137.77 10.5407 1137.41 10.2945 1136.97 10.1051C1136.53 9.91568 1136.06 9.74998 1135.54 9.60798L1133.75 9.09657C1132.62 8.76987 1131.72 8.30348 1131.06 7.69738C1130.39 7.09138 1130.06 6.29828 1130.06 5.31816C1130.06 4.50377 1130.28 3.79353 1130.72 3.18747C1131.17 2.57667 1131.76 2.10319 1132.51 1.76702C1133.26 1.42611 1134.1 1.25566 1135.03 1.25566C1135.97 1.25566 1136.8 1.42375 1137.53 1.75992C1138.26 2.09136 1138.84 2.5459 1139.27 3.12355C1139.7 3.70121 1139.92 4.35699 1139.95 5.09089H1138.24ZM1141.79 1.45452H1143.81L1147.84 8.24428H1148.01L1152.05 1.45452H1154.07L1148.81 10.0057V16H1147.05V10.0057L1141.79 1.45452ZM1164.3 5.09089C1164.21 4.37119 1163.87 3.81248 1163.26 3.41475C1162.65 3.01702 1161.91 2.81816 1161.03 2.81816C1160.39 2.81816 1159.82 2.92233 1159.34 3.13066C1158.86 3.33898 1158.49 3.62544 1158.22 3.99003C1157.95 4.35461 1157.82 4.76892 1157.82 5.23293C1157.82 5.62119 1157.91 5.955 1158.1 6.23435C1158.29 6.50898 1158.53 6.73862 1158.82 6.92327C1159.12 7.10318 1159.42 7.25238 1159.75 7.37068C1160.07 7.48438 1160.36 7.57668 1160.63 7.64768L1162.11 8.04548C1162.49 8.14488 1162.91 8.28218 1163.37 8.45738C1163.84 8.63258 1164.29 8.87167 1164.72 9.17467C1165.15 9.47297 1165.5 9.85648 1165.78 10.3253C1166.06 10.794 1166.2 11.3693 1166.2 12.0511C1166.2 12.8371 1166 13.5473 1165.58 14.1818C1165.18 14.8163 1164.58 15.3205 1163.79 15.6946C1163.01 16.0687 1162.06 16.2557 1160.95 16.2557C1159.9 16.2557 1159 16.0876 1158.24 15.7514C1157.48 15.4152 1156.89 14.9465 1156.45 14.3452C1156.02 13.7438 1155.78 13.0455 1155.72 12.25H1157.54C1157.58 12.7992 1157.77 13.2538 1158.09 13.6136C1158.42 13.9687 1158.83 14.2339 1159.33 14.4091C1159.83 14.5795 1160.37 14.6648 1160.95 14.6648C1161.62 14.6648 1162.22 14.5559 1162.76 14.3381C1163.29 14.1155 1163.72 13.8078 1164.03 13.4148C1164.34 13.017 1164.5 12.553 1164.5 12.0227C1164.5 11.5398 1164.36 11.1468 1164.09 10.8437C1163.82 10.5407 1163.47 10.2945 1163.03 10.1051C1162.59 9.91568 1162.11 9.74998 1161.6 9.60798L1159.81 9.09657C1158.67 8.76987 1157.77 8.30348 1157.11 7.69738C1156.45 7.09138 1156.12 6.29828 1156.12 5.31816C1156.12 4.50377 1156.34 3.79353 1156.78 3.18747C1157.22 2.57667 1157.82 2.10319 1158.57 1.76702C1159.32 1.42611 1160.16 1.25566 1161.09 1.25566C1162.03 1.25566 1162.86 1.42375 1163.59 1.75992C1164.32 2.09136 1164.89 2.5459 1165.32 3.12355C1165.75 3.70121 1165.98 4.35699 1166 5.09089H1164.3ZM1168.3 3.01702V1.45452H1179.21V3.01702H1174.64V16H1172.88V3.01702H1168.3ZM1181.93 16V1.45452H1190.71V3.01702H1183.69V7.93178H1190.25V9.49428H1183.69V14.4375H1190.82V16H1181.93ZM1193.88 1.45452H1195.98L1200.93 13.5284H1201.1L1206.04 1.45452H1208.14V16H1206.5V4.94884H1206.35L1201.81 16H1200.22L1195.67 4.94884H1195.53V16H1193.88V1.45452ZM1219.63 5.09089C1219.54 4.37119 1219.2 3.81248 1218.59 3.41475C1217.99 3.01702 1217.24 2.81816 1216.36 2.81816C1215.72 2.81816 1215.16 2.92233 1214.67 3.13066C1214.19 3.33898 1213.82 3.62544 1213.55 3.99003C1213.29 4.35461 1213.15 4.76892 1213.15 5.23293C1213.15 5.62119 1213.25 5.955 1213.43 6.23435C1213.62 6.50898 1213.86 6.73862 1214.15 6.92327C1214.45 7.10318 1214.76 7.25238 1215.08 7.37068C1215.4 7.48438 1215.7 7.57668 1215.97 7.64768L1217.44 8.04548C1217.82 8.14488 1218.24 8.28218 1218.71 8.45738C1219.18 8.63258 1219.62 8.87167 1220.05 9.17467C1220.48 9.47297 1220.83 9.85648 1221.11 10.3253C1221.39 10.794 1221.53 11.3693 1221.53 12.0511C1221.53 12.8371 1221.33 13.5473 1220.92 14.1818C1220.51 14.8163 1219.91 15.3205 1219.13 15.6946C1218.34 16.0687 1217.4 16.2557 1216.28 16.2557C1215.24 16.2557 1214.33 16.0876 1213.57 15.7514C1212.81 15.4152 1212.22 14.9465 1211.78 14.3452C1211.35 13.7438 1211.11 13.0455 1211.05 12.25H1212.87C1212.92 12.7992 1213.1 13.2538 1213.42 13.6136C1213.75 13.9687 1214.16 14.2339 1214.66 14.4091C1215.16 14.5795 1215.7 14.6648 1216.28 14.6648C1216.95 14.6648 1217.55 14.5559 1218.09 14.3381C1218.62 14.1155 1219.05 13.8078 1219.36 13.4148C1219.67 13.017 1219.83 12.553 1219.83 12.0227C1219.83 11.5398 1219.69 11.1468 1219.42 10.8437C1219.15 10.5407 1218.8 10.2945 1218.36 10.1051C1217.92 9.91568 1217.44 9.74998 1216.93 9.60798L1215.14 9.09657C1214 8.76987 1213.11 8.30348 1212.44 7.69738C1211.78 7.09138 1211.45 6.29828 1211.45 5.31816C1211.45 4.50377 1211.67 3.79353 1212.11 3.18747C1212.55 2.57667 1213.15 2.10319 1213.9 1.76702C1214.65 1.42611 1215.49 1.25566 1216.42 1.25566C1217.36 1.25566 1218.19 1.42375 1218.92 1.75992C1219.65 2.09136 1220.23 2.5459 1220.65 3.12355C1221.08 3.70121 1221.31 4.35699 1221.33 5.09089H1219.63ZM1231.05 10.9148C1230.7 10.9148 1230.4 10.7893 1230.15 10.5384C1229.9 10.2874 1229.77 9.98668 1229.77 9.63638C1229.77 9.28598 1229.9 8.98528 1230.15 8.73438C1230.4 8.48338 1230.7 8.35798 1231.05 8.35798C1231.4 8.35798 1231.7 8.48338 1231.95 8.73438C1232.2 8.98528 1232.33 9.28598 1232.33 9.63638C1232.33 9.86838 1232.27 10.0814 1232.15 10.2756C1232.04 10.4697 1231.88 10.6259 1231.69 10.7443C1231.5 10.858 1231.29 10.9148 1231.05 10.9148Z" fill="#ECFE3F"/>
</svg>
